<svg id="Layer_1" data-name="Layer 1" xmlns="http://www.w3.org/2000/svg" viewBox="0 0 20 20"><title>poilocka</title><path d="M19.59,1.85a1.36,1.36,0,0,0-.78-.72.84.84,0,0,0-1,.17A5.53,5.53,0,0,0,17,2.41h0a8.15,8.15,0,0,0-.68,1.54,1,1,0,0,1-.84.76l-3.34.37a3,3,0,0,0,.25,1.59l3.47-.45a.46.46,0,0,1,.5.43c.25,2.66.29,4.72-.16,6s-2.36,1.71-2.36,1.71a10,10,0,0,1-.71,2.42,10.3,10.3,0,0,0,4.21-2.54c1.25-1.67.58-8,.58-8h0c-.26-2.73.68-4.14,1.57-3.85C19.68,2.42,19.64,2,19.59,1.85Z"/><path d="M13.09,11.08h0c-.2-.93-.49-2-.74-2.92l-.08-.26c-.81-2.52-.51-3.2-.51-3.2h0a22.7,22.7,0,0,1,.82-2.62c0-.33-7.86-1-10.8-1.59A10.31,10.31,0,0,1,2.85,4.8h0a4.66,4.66,0,0,1-.21,1.58h0c-.31,1.45-1.3,4.7-1.3,4.7h0A7.09,7.09,0,0,0,1,13.17s-.21,2.46,1.9,6.13v.41l8.79.11c0-.41,0-.67,0-.8a7.59,7.59,0,0,0,.63-1.38h0a20.77,20.77,0,0,0,1-4c0-.17,0-.33,0-.49A7.09,7.09,0,0,0,13.09,11.08ZM3.32,17.64c-2.78-4.5,0-9.18,0-9.18A19.58,19.58,0,0,0,3.32,17.64Zm.31-10.7a7.55,7.55,0,0,0-.39-5.12C4.76,3.83,4.54,4.88,3.62,6.94Z"/></svg>