<?xml version="1.0" encoding="utf-8"?>
<!-- Generator: Adobe Illustrator 21.0.0, SVG Export Plug-In . SVG Version: 6.00 Build 0)  -->
<svg version="1.1" id="Layer_1" xmlns="http://www.w3.org/2000/svg" xmlns:xlink="http://www.w3.org/1999/xlink" x="0px" y="0px"
	 viewBox="0 0 20 20" style="enable-background:new 0 0 20 20;" xml:space="preserve">
<title>poilocka</title>
<g>
	<path d="M19.6,1.9c-0.2-0.3-0.4-0.6-0.8-0.7c-0.3-0.2-0.7-0.1-1,0.2C17.5,1.6,17.2,2,17,2.4l0,0c-0.3,0.5-0.5,1-0.7,1.5
		c-0.1,0.4-0.4,0.7-0.8,0.8l-3.3,0.4c-0.1,0.5,0,1.1,0.2,1.6l3.5-0.4c0.3,0,0.5,0.2,0.5,0.4c0,0,0,0,0,0c0.2,2.7,0.3,4.7-0.2,6
		s-2.4,1.7-2.4,1.7c-0.1,0.8-0.4,1.6-0.7,2.4c1.6-0.5,3-1.4,4.2-2.5c1.2-1.7,0.6-8,0.6-8l0,0c-0.3-2.7,0.7-4.1,1.6-3.8
		C19.7,2.4,19.6,2,19.6,1.9z"/>
	<path d="M13.1,11.1L13.1,11.1c-0.2-0.9-0.5-2-0.7-2.9l-0.1-0.3c-0.8-2.5-0.5-3.2-0.5-3.2l0,0c0.2-0.9,0.5-1.8,0.8-2.6
		c0-0.3-7.9-1-10.8-1.6c0.7,1.3,1,2.8,1.1,4.3l0,0c0,0.5,0,1.1-0.2,1.6l0,0c-0.3,1.4-1.3,4.7-1.3,4.7l0,0C1.1,11.8,1,12.5,1,13.2
		c0,0-0.2,2.5,1.9,6.1v0.4l8.8,0.1c0-0.4,0-0.7,0-0.8c0.3-0.4,0.5-0.9,0.6-1.4l0,0c0.5-1.3,0.8-2.6,1-4c0-0.2,0-0.3,0-0.5
		C13.3,12.5,13.3,11.8,13.1,11.1z M3.3,17.6c-2.8-4.5,0-9.2,0-9.2C2.6,11.5,2.6,14.6,3.3,17.6z M3.6,6.9C4.1,5.2,4,3.4,3.2,1.8
		C4.8,3.8,4.5,4.9,3.6,6.9L3.6,6.9z"/>
</g>
</svg>
